# xmcd
#
# Track frame offsets: 
#        150
#        17650
#        38172
#        57025
#        78070
#        91975
#        107202
#        127260
#        149552
#        165975
#        185940
#        204532
#        225012
#
# Disc length: 3293 seconds
#
# Revision: 8
# Processed by: cddbd v1.5.2PL0 Copyright (c) Steve Scherf et al.
# Submitted via: ExactAudioCopy v1.0b3
#
DISCID=a60cdb0d
DTITLE=Clarence 'Gatemouth' Brown - Back To Bogalusa
DYEAR=2001
DGENRE=Blues
TTITLE0=Folks Back Home
TTITLE1=It All Comes Back
TTITLE2=Same Old Blues
TTITLE3=Going Back To Louisiana
TTITLE4=Breaux Bridge Rag
TTITLE5=Why Are People Like That
TTITLE6=Grape Jelly
TTITLE7=Bogalusa Boogie Man
TTITLE8=Louisian'
TTITLE9=Dixie Chicken
TTITLE10=Lie No Better
TTITLE11=Slap It
TTITLE12=Dangerous Critter
EXTD=
EXTT0=
EXTT1=
EXTT2=
EXTT3=
EXTT4=
EXTT5=
EXTT6=
EXTT7=
EXTT8=
EXTT9=
EXTT10=
EXTT11=
EXTT12=
PLAYORDER=
